G75*
G70*
%OFA0B0*%
%FSLAX24Y24*%
%IPPOS*%
%LPD*%
%AMOC8*
5,1,8,0,0,1.08239X$1,22.5*
%
%ADD10C,0.0000*%
%ADD11C,0.0060*%
D10*
X005612Y004990D02*
X005612Y017589D01*
X006557Y017589D02*
X006559Y017639D01*
X006565Y017689D01*
X006575Y017738D01*
X006589Y017786D01*
X006606Y017833D01*
X006627Y017878D01*
X006652Y017922D01*
X006680Y017963D01*
X006712Y018002D01*
X006746Y018039D01*
X006783Y018073D01*
X006823Y018103D01*
X006865Y018130D01*
X006909Y018154D01*
X006955Y018175D01*
X007002Y018191D01*
X007050Y018204D01*
X007100Y018213D01*
X007149Y018218D01*
X007200Y018219D01*
X007250Y018216D01*
X007299Y018209D01*
X007348Y018198D01*
X007396Y018183D01*
X007442Y018165D01*
X007487Y018143D01*
X007530Y018117D01*
X007571Y018088D01*
X007610Y018056D01*
X007646Y018021D01*
X007678Y017983D01*
X007708Y017943D01*
X007735Y017900D01*
X007758Y017856D01*
X007777Y017810D01*
X007793Y017762D01*
X007805Y017713D01*
X007813Y017664D01*
X007817Y017614D01*
X007817Y017564D01*
X007813Y017514D01*
X007805Y017465D01*
X007793Y017416D01*
X007777Y017368D01*
X007758Y017322D01*
X007735Y017278D01*
X007708Y017235D01*
X007678Y017195D01*
X007646Y017157D01*
X007610Y017122D01*
X007571Y017090D01*
X007530Y017061D01*
X007487Y017035D01*
X007442Y017013D01*
X007396Y016995D01*
X007348Y016980D01*
X007299Y016969D01*
X007250Y016962D01*
X007200Y016959D01*
X007149Y016960D01*
X007100Y016965D01*
X007050Y016974D01*
X007002Y016987D01*
X006955Y017003D01*
X006909Y017024D01*
X006865Y017048D01*
X006823Y017075D01*
X006783Y017105D01*
X006746Y017139D01*
X006712Y017176D01*
X006680Y017215D01*
X006652Y017256D01*
X006627Y017300D01*
X006606Y017345D01*
X006589Y017392D01*
X006575Y017440D01*
X006565Y017489D01*
X006559Y017539D01*
X006557Y017589D01*
X005612Y017589D02*
X005614Y017666D01*
X005620Y017743D01*
X005629Y017820D01*
X005642Y017896D01*
X005659Y017972D01*
X005680Y018046D01*
X005704Y018120D01*
X005732Y018192D01*
X005763Y018262D01*
X005798Y018331D01*
X005836Y018399D01*
X005877Y018464D01*
X005922Y018527D01*
X005970Y018588D01*
X006020Y018647D01*
X006073Y018703D01*
X006129Y018756D01*
X006188Y018806D01*
X006249Y018854D01*
X006312Y018899D01*
X006377Y018940D01*
X006445Y018978D01*
X006514Y019013D01*
X006584Y019044D01*
X006656Y019072D01*
X006730Y019096D01*
X006804Y019117D01*
X006880Y019134D01*
X006956Y019147D01*
X007033Y019156D01*
X007110Y019162D01*
X007187Y019164D01*
X019785Y019164D01*
X019155Y017589D02*
X019157Y017639D01*
X019163Y017689D01*
X019173Y017738D01*
X019187Y017786D01*
X019204Y017833D01*
X019225Y017878D01*
X019250Y017922D01*
X019278Y017963D01*
X019310Y018002D01*
X019344Y018039D01*
X019381Y018073D01*
X019421Y018103D01*
X019463Y018130D01*
X019507Y018154D01*
X019553Y018175D01*
X019600Y018191D01*
X019648Y018204D01*
X019698Y018213D01*
X019747Y018218D01*
X019798Y018219D01*
X019848Y018216D01*
X019897Y018209D01*
X019946Y018198D01*
X019994Y018183D01*
X020040Y018165D01*
X020085Y018143D01*
X020128Y018117D01*
X020169Y018088D01*
X020208Y018056D01*
X020244Y018021D01*
X020276Y017983D01*
X020306Y017943D01*
X020333Y017900D01*
X020356Y017856D01*
X020375Y017810D01*
X020391Y017762D01*
X020403Y017713D01*
X020411Y017664D01*
X020415Y017614D01*
X020415Y017564D01*
X020411Y017514D01*
X020403Y017465D01*
X020391Y017416D01*
X020375Y017368D01*
X020356Y017322D01*
X020333Y017278D01*
X020306Y017235D01*
X020276Y017195D01*
X020244Y017157D01*
X020208Y017122D01*
X020169Y017090D01*
X020128Y017061D01*
X020085Y017035D01*
X020040Y017013D01*
X019994Y016995D01*
X019946Y016980D01*
X019897Y016969D01*
X019848Y016962D01*
X019798Y016959D01*
X019747Y016960D01*
X019698Y016965D01*
X019648Y016974D01*
X019600Y016987D01*
X019553Y017003D01*
X019507Y017024D01*
X019463Y017048D01*
X019421Y017075D01*
X019381Y017105D01*
X019344Y017139D01*
X019310Y017176D01*
X019278Y017215D01*
X019250Y017256D01*
X019225Y017300D01*
X019204Y017345D01*
X019187Y017392D01*
X019173Y017440D01*
X019163Y017489D01*
X019157Y017539D01*
X019155Y017589D01*
X019785Y019164D02*
X019862Y019162D01*
X019939Y019156D01*
X020016Y019147D01*
X020092Y019134D01*
X020168Y019117D01*
X020242Y019096D01*
X020316Y019072D01*
X020388Y019044D01*
X020458Y019013D01*
X020527Y018978D01*
X020595Y018940D01*
X020660Y018899D01*
X020723Y018854D01*
X020784Y018806D01*
X020843Y018756D01*
X020899Y018703D01*
X020952Y018647D01*
X021002Y018588D01*
X021050Y018527D01*
X021095Y018464D01*
X021136Y018399D01*
X021174Y018331D01*
X021209Y018262D01*
X021240Y018192D01*
X021268Y018120D01*
X021292Y018046D01*
X021313Y017972D01*
X021330Y017896D01*
X021343Y017820D01*
X021352Y017743D01*
X021358Y017666D01*
X021360Y017589D01*
X021360Y004990D01*
X019155Y004990D02*
X019157Y005040D01*
X019163Y005090D01*
X019173Y005139D01*
X019187Y005187D01*
X019204Y005234D01*
X019225Y005279D01*
X019250Y005323D01*
X019278Y005364D01*
X019310Y005403D01*
X019344Y005440D01*
X019381Y005474D01*
X019421Y005504D01*
X019463Y005531D01*
X019507Y005555D01*
X019553Y005576D01*
X019600Y005592D01*
X019648Y005605D01*
X019698Y005614D01*
X019747Y005619D01*
X019798Y005620D01*
X019848Y005617D01*
X019897Y005610D01*
X019946Y005599D01*
X019994Y005584D01*
X020040Y005566D01*
X020085Y005544D01*
X020128Y005518D01*
X020169Y005489D01*
X020208Y005457D01*
X020244Y005422D01*
X020276Y005384D01*
X020306Y005344D01*
X020333Y005301D01*
X020356Y005257D01*
X020375Y005211D01*
X020391Y005163D01*
X020403Y005114D01*
X020411Y005065D01*
X020415Y005015D01*
X020415Y004965D01*
X020411Y004915D01*
X020403Y004866D01*
X020391Y004817D01*
X020375Y004769D01*
X020356Y004723D01*
X020333Y004679D01*
X020306Y004636D01*
X020276Y004596D01*
X020244Y004558D01*
X020208Y004523D01*
X020169Y004491D01*
X020128Y004462D01*
X020085Y004436D01*
X020040Y004414D01*
X019994Y004396D01*
X019946Y004381D01*
X019897Y004370D01*
X019848Y004363D01*
X019798Y004360D01*
X019747Y004361D01*
X019698Y004366D01*
X019648Y004375D01*
X019600Y004388D01*
X019553Y004404D01*
X019507Y004425D01*
X019463Y004449D01*
X019421Y004476D01*
X019381Y004506D01*
X019344Y004540D01*
X019310Y004577D01*
X019278Y004616D01*
X019250Y004657D01*
X019225Y004701D01*
X019204Y004746D01*
X019187Y004793D01*
X019173Y004841D01*
X019163Y004890D01*
X019157Y004940D01*
X019155Y004990D01*
X019785Y003415D02*
X019862Y003417D01*
X019939Y003423D01*
X020016Y003432D01*
X020092Y003445D01*
X020168Y003462D01*
X020242Y003483D01*
X020316Y003507D01*
X020388Y003535D01*
X020458Y003566D01*
X020527Y003601D01*
X020595Y003639D01*
X020660Y003680D01*
X020723Y003725D01*
X020784Y003773D01*
X020843Y003823D01*
X020899Y003876D01*
X020952Y003932D01*
X021002Y003991D01*
X021050Y004052D01*
X021095Y004115D01*
X021136Y004180D01*
X021174Y004248D01*
X021209Y004317D01*
X021240Y004387D01*
X021268Y004459D01*
X021292Y004533D01*
X021313Y004607D01*
X021330Y004683D01*
X021343Y004759D01*
X021352Y004836D01*
X021358Y004913D01*
X021360Y004990D01*
X019785Y003416D02*
X007187Y003416D01*
X006557Y004990D02*
X006559Y005040D01*
X006565Y005090D01*
X006575Y005139D01*
X006589Y005187D01*
X006606Y005234D01*
X006627Y005279D01*
X006652Y005323D01*
X006680Y005364D01*
X006712Y005403D01*
X006746Y005440D01*
X006783Y005474D01*
X006823Y005504D01*
X006865Y005531D01*
X006909Y005555D01*
X006955Y005576D01*
X007002Y005592D01*
X007050Y005605D01*
X007100Y005614D01*
X007149Y005619D01*
X007200Y005620D01*
X007250Y005617D01*
X007299Y005610D01*
X007348Y005599D01*
X007396Y005584D01*
X007442Y005566D01*
X007487Y005544D01*
X007530Y005518D01*
X007571Y005489D01*
X007610Y005457D01*
X007646Y005422D01*
X007678Y005384D01*
X007708Y005344D01*
X007735Y005301D01*
X007758Y005257D01*
X007777Y005211D01*
X007793Y005163D01*
X007805Y005114D01*
X007813Y005065D01*
X007817Y005015D01*
X007817Y004965D01*
X007813Y004915D01*
X007805Y004866D01*
X007793Y004817D01*
X007777Y004769D01*
X007758Y004723D01*
X007735Y004679D01*
X007708Y004636D01*
X007678Y004596D01*
X007646Y004558D01*
X007610Y004523D01*
X007571Y004491D01*
X007530Y004462D01*
X007487Y004436D01*
X007442Y004414D01*
X007396Y004396D01*
X007348Y004381D01*
X007299Y004370D01*
X007250Y004363D01*
X007200Y004360D01*
X007149Y004361D01*
X007100Y004366D01*
X007050Y004375D01*
X007002Y004388D01*
X006955Y004404D01*
X006909Y004425D01*
X006865Y004449D01*
X006823Y004476D01*
X006783Y004506D01*
X006746Y004540D01*
X006712Y004577D01*
X006680Y004616D01*
X006652Y004657D01*
X006627Y004701D01*
X006606Y004746D01*
X006589Y004793D01*
X006575Y004841D01*
X006565Y004890D01*
X006559Y004940D01*
X006557Y004990D01*
X005612Y004990D02*
X005614Y004913D01*
X005620Y004836D01*
X005629Y004759D01*
X005642Y004683D01*
X005659Y004607D01*
X005680Y004533D01*
X005704Y004459D01*
X005732Y004387D01*
X005763Y004317D01*
X005798Y004248D01*
X005836Y004180D01*
X005877Y004115D01*
X005922Y004052D01*
X005970Y003991D01*
X006020Y003932D01*
X006073Y003876D01*
X006129Y003823D01*
X006188Y003773D01*
X006249Y003725D01*
X006312Y003680D01*
X006377Y003639D01*
X006445Y003601D01*
X006514Y003566D01*
X006584Y003535D01*
X006656Y003507D01*
X006730Y003483D01*
X006804Y003462D01*
X006880Y003445D01*
X006956Y003432D01*
X007033Y003423D01*
X007110Y003417D01*
X007187Y003415D01*
D11*
X014597Y003839D02*
X014891Y003839D01*
X014744Y003839D02*
X014744Y004280D01*
X014891Y004133D01*
X015058Y004133D02*
X015204Y003839D01*
X015351Y004133D01*
X015518Y003766D02*
X015812Y003766D01*
X015978Y003913D02*
X016052Y003839D01*
X016199Y003839D01*
X016272Y003913D01*
X015978Y004206D01*
X015978Y003913D01*
X016272Y003913D02*
X016272Y004206D01*
X016199Y004280D01*
X016052Y004280D01*
X015978Y004206D01*
X016439Y004060D02*
X016732Y004060D01*
X016512Y004280D01*
X016512Y003839D01*
X016899Y003913D02*
X016973Y003839D01*
X017119Y003839D01*
X017193Y003913D01*
X016899Y004206D01*
X016899Y003913D01*
X017193Y003913D02*
X017193Y004206D01*
X017119Y004280D01*
X016973Y004280D01*
X016899Y004206D01*
X017360Y004060D02*
X017653Y004060D01*
X017433Y004280D01*
X017433Y003839D01*
X017820Y004060D02*
X017820Y004206D01*
X017893Y004280D01*
X018114Y004280D01*
X018114Y003839D01*
X018114Y003986D02*
X017893Y003986D01*
X017820Y004060D01*
X018280Y003913D02*
X018280Y004206D01*
X018354Y004280D01*
X018574Y004280D01*
X018574Y003839D01*
X018354Y003839D01*
X018280Y003913D01*
M02*
