G75*
G70*
%OFA0B0*%
%FSLAX24Y24*%
%IPPOS*%
%LPD*%
%AMOC8*
5,1,8,0,0,1.08239X$1,22.5*
%
%ADD10C,0.0060*%
%ADD11C,0.0100*%
%ADD12C,0.0070*%
%ADD13C,0.0040*%
%ADD14C,0.0050*%
%ADD15R,0.0079X0.0079*%
%ADD16C,0.0000*%
D10*
X006309Y009173D02*
X006309Y013323D01*
X006959Y013323D01*
X007659Y013323D02*
X013959Y013323D01*
X014659Y013323D02*
X015959Y013323D01*
X015559Y012923D02*
X015309Y012323D01*
X015309Y010373D01*
X017509Y009173D02*
X017509Y013323D01*
X016659Y013323D01*
X015759Y012823D02*
X015559Y012823D01*
X015059Y012823D02*
X014859Y012823D01*
X017509Y009173D02*
X006309Y009173D01*
X007309Y010373D02*
X007309Y010973D01*
X006809Y010973D02*
X007809Y011673D01*
X007309Y011673D02*
X007309Y012273D01*
X006896Y013978D02*
X006896Y015993D01*
D11*
X006758Y016037D02*
X006758Y013934D01*
X007900Y013934D01*
X007900Y016037D01*
X006758Y016037D01*
X006559Y011673D02*
X007309Y011673D01*
X007809Y011673D01*
X008059Y011673D01*
X008059Y010973D01*
X007309Y010973D01*
X006809Y010973D01*
X006559Y010973D01*
X006559Y011673D01*
D12*
X016100Y008629D02*
X016100Y007998D01*
X016100Y008208D02*
X016521Y008629D01*
X016745Y008418D02*
X016955Y008629D01*
X016955Y007998D01*
X016745Y007998D02*
X017165Y007998D01*
X016521Y007998D02*
X016205Y008313D01*
D13*
X018442Y009128D02*
X019126Y009128D01*
X019126Y013458D01*
X018442Y013458D01*
X018442Y009128D01*
X018677Y009758D02*
X018524Y009911D01*
X018984Y009911D01*
X018984Y009758D02*
X018984Y010065D01*
X019639Y010390D02*
X019641Y010388D01*
X019348Y009915D02*
X019350Y009962D01*
X019356Y010009D01*
X019365Y010055D01*
X019379Y010100D01*
X019396Y010144D01*
X019417Y010187D01*
X019441Y010227D01*
X019468Y010266D01*
X019499Y010302D01*
X019532Y010335D01*
X019568Y010366D01*
X019607Y010393D01*
X019647Y010417D01*
X019690Y010438D01*
X019734Y010455D01*
X019779Y010469D01*
X019825Y010478D01*
X019872Y010484D01*
X019919Y010486D01*
X019966Y010484D01*
X020013Y010478D01*
X020059Y010469D01*
X020104Y010455D01*
X020148Y010438D01*
X020191Y010417D01*
X020231Y010393D01*
X020270Y010366D01*
X020306Y010335D01*
X020339Y010302D01*
X020370Y010266D01*
X020397Y010227D01*
X020421Y010187D01*
X020442Y010144D01*
X020459Y010100D01*
X020473Y010055D01*
X020482Y010009D01*
X020488Y009962D01*
X020490Y009915D01*
X020488Y009868D01*
X020482Y009821D01*
X020473Y009775D01*
X020459Y009730D01*
X020442Y009686D01*
X020421Y009643D01*
X020397Y009603D01*
X020370Y009564D01*
X020339Y009528D01*
X020306Y009495D01*
X020270Y009464D01*
X020231Y009437D01*
X020191Y009413D01*
X020148Y009392D01*
X020104Y009375D01*
X020059Y009361D01*
X020013Y009352D01*
X019966Y009346D01*
X019919Y009344D01*
X019872Y009346D01*
X019825Y009352D01*
X019779Y009361D01*
X019734Y009375D01*
X019690Y009392D01*
X019647Y009413D01*
X019607Y009437D01*
X019568Y009464D01*
X019532Y009495D01*
X019499Y009528D01*
X019468Y009564D01*
X019441Y009603D01*
X019417Y009643D01*
X019396Y009686D01*
X019379Y009730D01*
X019365Y009775D01*
X019356Y009821D01*
X019350Y009868D01*
X019348Y009915D01*
X019314Y009128D02*
X019126Y009128D01*
X019314Y009128D02*
X019314Y013458D01*
X019126Y013458D01*
X019314Y013458D02*
X020516Y013458D01*
X020516Y009128D01*
X020706Y009128D01*
X021025Y009128D01*
X021198Y009128D01*
X021316Y009128D01*
X021316Y013458D01*
X021198Y013458D01*
X021025Y013458D01*
X021025Y009128D01*
X021198Y009128D02*
X021198Y013458D01*
X021025Y013458D02*
X020706Y013458D01*
X020516Y013458D01*
X020706Y013458D02*
X020706Y009128D01*
X020754Y009238D02*
X020754Y009488D01*
X021004Y009363D01*
X020754Y009238D01*
X020754Y009268D02*
X020814Y009268D01*
X020754Y009306D02*
X020891Y009306D01*
X020968Y009345D02*
X020754Y009345D01*
X020754Y009383D02*
X020964Y009383D01*
X020887Y009422D02*
X020754Y009422D01*
X020754Y009460D02*
X020810Y009460D01*
X020516Y009128D02*
X019314Y009128D01*
X019604Y008968D02*
X019910Y008508D01*
X020064Y008585D02*
X020141Y008508D01*
X020294Y008508D01*
X020371Y008585D01*
X020371Y008661D01*
X020294Y008738D01*
X020217Y008738D01*
X020294Y008738D02*
X020371Y008815D01*
X020371Y008892D01*
X020294Y008968D01*
X020141Y008968D01*
X020064Y008892D01*
X019910Y008968D02*
X019604Y008508D01*
X018984Y011133D02*
X018677Y011440D01*
X018601Y011440D01*
X018524Y011363D01*
X018524Y011210D01*
X018601Y011133D01*
X018984Y011133D02*
X018984Y011440D01*
X019639Y011768D02*
X019641Y011766D01*
X019348Y011293D02*
X019350Y011340D01*
X019356Y011387D01*
X019365Y011433D01*
X019379Y011478D01*
X019396Y011522D01*
X019417Y011565D01*
X019441Y011605D01*
X019468Y011644D01*
X019499Y011680D01*
X019532Y011713D01*
X019568Y011744D01*
X019607Y011771D01*
X019647Y011795D01*
X019690Y011816D01*
X019734Y011833D01*
X019779Y011847D01*
X019825Y011856D01*
X019872Y011862D01*
X019919Y011864D01*
X019966Y011862D01*
X020013Y011856D01*
X020059Y011847D01*
X020104Y011833D01*
X020148Y011816D01*
X020191Y011795D01*
X020231Y011771D01*
X020270Y011744D01*
X020306Y011713D01*
X020339Y011680D01*
X020370Y011644D01*
X020397Y011605D01*
X020421Y011565D01*
X020442Y011522D01*
X020459Y011478D01*
X020473Y011433D01*
X020482Y011387D01*
X020488Y011340D01*
X020490Y011293D01*
X020488Y011246D01*
X020482Y011199D01*
X020473Y011153D01*
X020459Y011108D01*
X020442Y011064D01*
X020421Y011021D01*
X020397Y010981D01*
X020370Y010942D01*
X020339Y010906D01*
X020306Y010873D01*
X020270Y010842D01*
X020231Y010815D01*
X020191Y010791D01*
X020148Y010770D01*
X020104Y010753D01*
X020059Y010739D01*
X020013Y010730D01*
X019966Y010724D01*
X019919Y010722D01*
X019872Y010724D01*
X019825Y010730D01*
X019779Y010739D01*
X019734Y010753D01*
X019690Y010770D01*
X019647Y010791D01*
X019607Y010815D01*
X019568Y010842D01*
X019532Y010873D01*
X019499Y010906D01*
X019468Y010942D01*
X019441Y010981D01*
X019417Y011021D01*
X019396Y011064D01*
X019379Y011108D01*
X019365Y011153D01*
X019356Y011199D01*
X019350Y011246D01*
X019348Y011293D01*
X018908Y012508D02*
X018984Y012585D01*
X018984Y012738D01*
X018908Y012815D01*
X018831Y012815D01*
X018754Y012738D01*
X018754Y012661D01*
X018754Y012738D02*
X018677Y012815D01*
X018601Y012815D01*
X018524Y012738D01*
X018524Y012585D01*
X018601Y012508D01*
X019639Y013146D02*
X019641Y013144D01*
X019348Y012671D02*
X019350Y012718D01*
X019356Y012765D01*
X019365Y012811D01*
X019379Y012856D01*
X019396Y012900D01*
X019417Y012943D01*
X019441Y012983D01*
X019468Y013022D01*
X019499Y013058D01*
X019532Y013091D01*
X019568Y013122D01*
X019607Y013149D01*
X019647Y013173D01*
X019690Y013194D01*
X019734Y013211D01*
X019779Y013225D01*
X019825Y013234D01*
X019872Y013240D01*
X019919Y013242D01*
X019966Y013240D01*
X020013Y013234D01*
X020059Y013225D01*
X020104Y013211D01*
X020148Y013194D01*
X020191Y013173D01*
X020231Y013149D01*
X020270Y013122D01*
X020306Y013091D01*
X020339Y013058D01*
X020370Y013022D01*
X020397Y012983D01*
X020421Y012943D01*
X020442Y012900D01*
X020459Y012856D01*
X020473Y012811D01*
X020482Y012765D01*
X020488Y012718D01*
X020490Y012671D01*
X020488Y012624D01*
X020482Y012577D01*
X020473Y012531D01*
X020459Y012486D01*
X020442Y012442D01*
X020421Y012399D01*
X020397Y012359D01*
X020370Y012320D01*
X020339Y012284D01*
X020306Y012251D01*
X020270Y012220D01*
X020231Y012193D01*
X020191Y012169D01*
X020148Y012148D01*
X020104Y012131D01*
X020059Y012117D01*
X020013Y012108D01*
X019966Y012102D01*
X019919Y012100D01*
X019872Y012102D01*
X019825Y012108D01*
X019779Y012117D01*
X019734Y012131D01*
X019690Y012148D01*
X019647Y012169D01*
X019607Y012193D01*
X019568Y012220D01*
X019532Y012251D01*
X019499Y012284D01*
X019468Y012320D01*
X019441Y012359D01*
X019417Y012399D01*
X019396Y012442D01*
X019379Y012486D01*
X019365Y012531D01*
X019356Y012577D01*
X019350Y012624D01*
X019348Y012671D01*
X006609Y013906D02*
X006149Y014213D01*
X006226Y014366D02*
X006149Y014443D01*
X006149Y014596D01*
X006226Y014673D01*
X006302Y014673D01*
X006609Y014366D01*
X006609Y014673D01*
X006609Y014213D02*
X006149Y013906D01*
D14*
X008229Y014541D02*
X008229Y014766D01*
X008304Y014841D01*
X008454Y014841D01*
X008529Y014766D01*
X008529Y014541D01*
X008529Y014691D02*
X008679Y014841D01*
X008679Y015001D02*
X008679Y015301D01*
X008679Y015151D02*
X008229Y015151D01*
X008379Y015001D01*
X008229Y014541D02*
X008679Y014541D01*
X008685Y008924D02*
X008685Y008473D01*
X008985Y008473D01*
X009145Y008473D02*
X009370Y008473D01*
X009445Y008548D01*
X009445Y008848D01*
X009370Y008924D01*
X009145Y008924D01*
X009145Y008473D01*
X008835Y008698D02*
X008685Y008698D01*
X008525Y008473D02*
X008224Y008473D01*
X008224Y008924D01*
X008685Y008924D02*
X008985Y008924D01*
X009605Y008773D02*
X009756Y008924D01*
X009756Y008473D01*
X009906Y008473D02*
X009605Y008473D01*
D15*
X008739Y007948D03*
D16*
X005612Y004990D02*
X005612Y017589D01*
X006557Y017589D02*
X006559Y017639D01*
X006565Y017689D01*
X006575Y017738D01*
X006589Y017786D01*
X006606Y017833D01*
X006627Y017878D01*
X006652Y017922D01*
X006680Y017963D01*
X006712Y018002D01*
X006746Y018039D01*
X006783Y018073D01*
X006823Y018103D01*
X006865Y018130D01*
X006909Y018154D01*
X006955Y018175D01*
X007002Y018191D01*
X007050Y018204D01*
X007100Y018213D01*
X007149Y018218D01*
X007200Y018219D01*
X007250Y018216D01*
X007299Y018209D01*
X007348Y018198D01*
X007396Y018183D01*
X007442Y018165D01*
X007487Y018143D01*
X007530Y018117D01*
X007571Y018088D01*
X007610Y018056D01*
X007646Y018021D01*
X007678Y017983D01*
X007708Y017943D01*
X007735Y017900D01*
X007758Y017856D01*
X007777Y017810D01*
X007793Y017762D01*
X007805Y017713D01*
X007813Y017664D01*
X007817Y017614D01*
X007817Y017564D01*
X007813Y017514D01*
X007805Y017465D01*
X007793Y017416D01*
X007777Y017368D01*
X007758Y017322D01*
X007735Y017278D01*
X007708Y017235D01*
X007678Y017195D01*
X007646Y017157D01*
X007610Y017122D01*
X007571Y017090D01*
X007530Y017061D01*
X007487Y017035D01*
X007442Y017013D01*
X007396Y016995D01*
X007348Y016980D01*
X007299Y016969D01*
X007250Y016962D01*
X007200Y016959D01*
X007149Y016960D01*
X007100Y016965D01*
X007050Y016974D01*
X007002Y016987D01*
X006955Y017003D01*
X006909Y017024D01*
X006865Y017048D01*
X006823Y017075D01*
X006783Y017105D01*
X006746Y017139D01*
X006712Y017176D01*
X006680Y017215D01*
X006652Y017256D01*
X006627Y017300D01*
X006606Y017345D01*
X006589Y017392D01*
X006575Y017440D01*
X006565Y017489D01*
X006559Y017539D01*
X006557Y017589D01*
X005612Y017589D02*
X005614Y017666D01*
X005620Y017743D01*
X005629Y017820D01*
X005642Y017896D01*
X005659Y017972D01*
X005680Y018046D01*
X005704Y018120D01*
X005732Y018192D01*
X005763Y018262D01*
X005798Y018331D01*
X005836Y018399D01*
X005877Y018464D01*
X005922Y018527D01*
X005970Y018588D01*
X006020Y018647D01*
X006073Y018703D01*
X006129Y018756D01*
X006188Y018806D01*
X006249Y018854D01*
X006312Y018899D01*
X006377Y018940D01*
X006445Y018978D01*
X006514Y019013D01*
X006584Y019044D01*
X006656Y019072D01*
X006730Y019096D01*
X006804Y019117D01*
X006880Y019134D01*
X006956Y019147D01*
X007033Y019156D01*
X007110Y019162D01*
X007187Y019164D01*
X019785Y019164D01*
X019155Y017589D02*
X019157Y017639D01*
X019163Y017689D01*
X019173Y017738D01*
X019187Y017786D01*
X019204Y017833D01*
X019225Y017878D01*
X019250Y017922D01*
X019278Y017963D01*
X019310Y018002D01*
X019344Y018039D01*
X019381Y018073D01*
X019421Y018103D01*
X019463Y018130D01*
X019507Y018154D01*
X019553Y018175D01*
X019600Y018191D01*
X019648Y018204D01*
X019698Y018213D01*
X019747Y018218D01*
X019798Y018219D01*
X019848Y018216D01*
X019897Y018209D01*
X019946Y018198D01*
X019994Y018183D01*
X020040Y018165D01*
X020085Y018143D01*
X020128Y018117D01*
X020169Y018088D01*
X020208Y018056D01*
X020244Y018021D01*
X020276Y017983D01*
X020306Y017943D01*
X020333Y017900D01*
X020356Y017856D01*
X020375Y017810D01*
X020391Y017762D01*
X020403Y017713D01*
X020411Y017664D01*
X020415Y017614D01*
X020415Y017564D01*
X020411Y017514D01*
X020403Y017465D01*
X020391Y017416D01*
X020375Y017368D01*
X020356Y017322D01*
X020333Y017278D01*
X020306Y017235D01*
X020276Y017195D01*
X020244Y017157D01*
X020208Y017122D01*
X020169Y017090D01*
X020128Y017061D01*
X020085Y017035D01*
X020040Y017013D01*
X019994Y016995D01*
X019946Y016980D01*
X019897Y016969D01*
X019848Y016962D01*
X019798Y016959D01*
X019747Y016960D01*
X019698Y016965D01*
X019648Y016974D01*
X019600Y016987D01*
X019553Y017003D01*
X019507Y017024D01*
X019463Y017048D01*
X019421Y017075D01*
X019381Y017105D01*
X019344Y017139D01*
X019310Y017176D01*
X019278Y017215D01*
X019250Y017256D01*
X019225Y017300D01*
X019204Y017345D01*
X019187Y017392D01*
X019173Y017440D01*
X019163Y017489D01*
X019157Y017539D01*
X019155Y017589D01*
X019785Y019164D02*
X019862Y019162D01*
X019939Y019156D01*
X020016Y019147D01*
X020092Y019134D01*
X020168Y019117D01*
X020242Y019096D01*
X020316Y019072D01*
X020388Y019044D01*
X020458Y019013D01*
X020527Y018978D01*
X020595Y018940D01*
X020660Y018899D01*
X020723Y018854D01*
X020784Y018806D01*
X020843Y018756D01*
X020899Y018703D01*
X020952Y018647D01*
X021002Y018588D01*
X021050Y018527D01*
X021095Y018464D01*
X021136Y018399D01*
X021174Y018331D01*
X021209Y018262D01*
X021240Y018192D01*
X021268Y018120D01*
X021292Y018046D01*
X021313Y017972D01*
X021330Y017896D01*
X021343Y017820D01*
X021352Y017743D01*
X021358Y017666D01*
X021360Y017589D01*
X021360Y004990D01*
X019155Y004990D02*
X019157Y005040D01*
X019163Y005090D01*
X019173Y005139D01*
X019187Y005187D01*
X019204Y005234D01*
X019225Y005279D01*
X019250Y005323D01*
X019278Y005364D01*
X019310Y005403D01*
X019344Y005440D01*
X019381Y005474D01*
X019421Y005504D01*
X019463Y005531D01*
X019507Y005555D01*
X019553Y005576D01*
X019600Y005592D01*
X019648Y005605D01*
X019698Y005614D01*
X019747Y005619D01*
X019798Y005620D01*
X019848Y005617D01*
X019897Y005610D01*
X019946Y005599D01*
X019994Y005584D01*
X020040Y005566D01*
X020085Y005544D01*
X020128Y005518D01*
X020169Y005489D01*
X020208Y005457D01*
X020244Y005422D01*
X020276Y005384D01*
X020306Y005344D01*
X020333Y005301D01*
X020356Y005257D01*
X020375Y005211D01*
X020391Y005163D01*
X020403Y005114D01*
X020411Y005065D01*
X020415Y005015D01*
X020415Y004965D01*
X020411Y004915D01*
X020403Y004866D01*
X020391Y004817D01*
X020375Y004769D01*
X020356Y004723D01*
X020333Y004679D01*
X020306Y004636D01*
X020276Y004596D01*
X020244Y004558D01*
X020208Y004523D01*
X020169Y004491D01*
X020128Y004462D01*
X020085Y004436D01*
X020040Y004414D01*
X019994Y004396D01*
X019946Y004381D01*
X019897Y004370D01*
X019848Y004363D01*
X019798Y004360D01*
X019747Y004361D01*
X019698Y004366D01*
X019648Y004375D01*
X019600Y004388D01*
X019553Y004404D01*
X019507Y004425D01*
X019463Y004449D01*
X019421Y004476D01*
X019381Y004506D01*
X019344Y004540D01*
X019310Y004577D01*
X019278Y004616D01*
X019250Y004657D01*
X019225Y004701D01*
X019204Y004746D01*
X019187Y004793D01*
X019173Y004841D01*
X019163Y004890D01*
X019157Y004940D01*
X019155Y004990D01*
X019785Y003415D02*
X019862Y003417D01*
X019939Y003423D01*
X020016Y003432D01*
X020092Y003445D01*
X020168Y003462D01*
X020242Y003483D01*
X020316Y003507D01*
X020388Y003535D01*
X020458Y003566D01*
X020527Y003601D01*
X020595Y003639D01*
X020660Y003680D01*
X020723Y003725D01*
X020784Y003773D01*
X020843Y003823D01*
X020899Y003876D01*
X020952Y003932D01*
X021002Y003991D01*
X021050Y004052D01*
X021095Y004115D01*
X021136Y004180D01*
X021174Y004248D01*
X021209Y004317D01*
X021240Y004387D01*
X021268Y004459D01*
X021292Y004533D01*
X021313Y004607D01*
X021330Y004683D01*
X021343Y004759D01*
X021352Y004836D01*
X021358Y004913D01*
X021360Y004990D01*
X019785Y003416D02*
X007187Y003416D01*
X006557Y004990D02*
X006559Y005040D01*
X006565Y005090D01*
X006575Y005139D01*
X006589Y005187D01*
X006606Y005234D01*
X006627Y005279D01*
X006652Y005323D01*
X006680Y005364D01*
X006712Y005403D01*
X006746Y005440D01*
X006783Y005474D01*
X006823Y005504D01*
X006865Y005531D01*
X006909Y005555D01*
X006955Y005576D01*
X007002Y005592D01*
X007050Y005605D01*
X007100Y005614D01*
X007149Y005619D01*
X007200Y005620D01*
X007250Y005617D01*
X007299Y005610D01*
X007348Y005599D01*
X007396Y005584D01*
X007442Y005566D01*
X007487Y005544D01*
X007530Y005518D01*
X007571Y005489D01*
X007610Y005457D01*
X007646Y005422D01*
X007678Y005384D01*
X007708Y005344D01*
X007735Y005301D01*
X007758Y005257D01*
X007777Y005211D01*
X007793Y005163D01*
X007805Y005114D01*
X007813Y005065D01*
X007817Y005015D01*
X007817Y004965D01*
X007813Y004915D01*
X007805Y004866D01*
X007793Y004817D01*
X007777Y004769D01*
X007758Y004723D01*
X007735Y004679D01*
X007708Y004636D01*
X007678Y004596D01*
X007646Y004558D01*
X007610Y004523D01*
X007571Y004491D01*
X007530Y004462D01*
X007487Y004436D01*
X007442Y004414D01*
X007396Y004396D01*
X007348Y004381D01*
X007299Y004370D01*
X007250Y004363D01*
X007200Y004360D01*
X007149Y004361D01*
X007100Y004366D01*
X007050Y004375D01*
X007002Y004388D01*
X006955Y004404D01*
X006909Y004425D01*
X006865Y004449D01*
X006823Y004476D01*
X006783Y004506D01*
X006746Y004540D01*
X006712Y004577D01*
X006680Y004616D01*
X006652Y004657D01*
X006627Y004701D01*
X006606Y004746D01*
X006589Y004793D01*
X006575Y004841D01*
X006565Y004890D01*
X006559Y004940D01*
X006557Y004990D01*
X005612Y004990D02*
X005614Y004913D01*
X005620Y004836D01*
X005629Y004759D01*
X005642Y004683D01*
X005659Y004607D01*
X005680Y004533D01*
X005704Y004459D01*
X005732Y004387D01*
X005763Y004317D01*
X005798Y004248D01*
X005836Y004180D01*
X005877Y004115D01*
X005922Y004052D01*
X005970Y003991D01*
X006020Y003932D01*
X006073Y003876D01*
X006129Y003823D01*
X006188Y003773D01*
X006249Y003725D01*
X006312Y003680D01*
X006377Y003639D01*
X006445Y003601D01*
X006514Y003566D01*
X006584Y003535D01*
X006656Y003507D01*
X006730Y003483D01*
X006804Y003462D01*
X006880Y003445D01*
X006956Y003432D01*
X007033Y003423D01*
X007110Y003417D01*
X007187Y003415D01*
M02*
