%
M48
M72
T01C0.0400
T02C0.1260
%
T01
X12112Y19916
X13112Y19916
X14112Y19916
X15112Y19916
X16112Y19916
X17112Y19916
X18112Y19916
X19112Y19916
X19112Y18916
X18112Y18916
X17112Y18916
X16112Y18916
X15112Y18916
X14112Y18916
X13112Y18916
X12112Y18916
X21612Y13916
X21612Y12916
X21612Y11916
X21612Y10916
X21612Y9916
X21612Y7416
X20612Y7416
X19612Y7416
X18612Y7416
X17612Y7416
X16612Y7416
X15612Y7416
X14612Y7416
X13612Y7416
X12612Y7416
X11612Y7416
X10612Y7416
X9612Y7416
X9612Y6416
X10612Y6416
X11612Y6416
X12612Y6416
X13612Y6416
X14612Y6416
X15612Y6416
X16612Y6416
X17612Y6416
X18612Y6416
X19612Y6416
X20612Y6416
X21612Y6416
T02
X7187Y21526
X23722Y21526
X23722Y4990
X7187Y4990
M30
