G75*
%MOIN*%
%OFA0B0*%
%FSLAX24Y24*%
%IPPOS*%
%LPD*%
%AMOC8*
5,1,8,0,0,1.08239X$1,22.5*
%
%ADD10C,0.0040*%
%ADD11C,0.0000*%
%ADD12C,0.0070*%
%ADD13C,0.0060*%
%ADD14C,0.0050*%
%ADD15C,0.0025*%
%ADD16C,0.0080*%
D10*
X013370Y006753D02*
X013370Y007060D01*
X013370Y006907D02*
X013830Y006907D01*
X013677Y006753D01*
X014370Y006753D02*
X014677Y007060D01*
X014754Y007060D01*
X014830Y006984D01*
X014830Y006830D01*
X014754Y006753D01*
X014370Y006753D02*
X014370Y007060D01*
X014447Y010503D02*
X014370Y010580D01*
X014370Y010734D01*
X014447Y010810D01*
X014523Y010810D01*
X014600Y010734D01*
X014600Y010503D01*
X014447Y010503D01*
X014600Y010503D02*
X014754Y010657D01*
X014830Y010810D01*
X013830Y010810D02*
X013830Y010503D01*
X013600Y010503D01*
X013677Y010657D01*
X013677Y010734D01*
X013600Y010810D01*
X013447Y010810D01*
X013370Y010734D01*
X013370Y010580D01*
X013447Y010503D01*
X020370Y010580D02*
X020447Y010503D01*
X020370Y010580D02*
X020370Y010734D01*
X020447Y010810D01*
X020600Y010810D01*
X020677Y010734D01*
X020677Y010657D01*
X020600Y010503D01*
X020830Y010503D01*
X020830Y010810D01*
X021370Y010734D02*
X021370Y010580D01*
X021447Y010503D01*
X021600Y010503D01*
X021600Y010734D01*
X021523Y010810D01*
X021447Y010810D01*
X021370Y010734D01*
X021600Y010503D02*
X021754Y010657D01*
X021830Y010810D01*
X023967Y010397D02*
X023967Y010320D01*
X023967Y010397D02*
X024043Y010474D01*
X024427Y010474D01*
X024427Y010627D02*
X024350Y010627D01*
X024350Y010704D01*
X024427Y010704D01*
X024427Y010627D01*
X024197Y010627D02*
X024120Y010627D01*
X024120Y010704D01*
X024197Y010704D01*
X024197Y010627D01*
X024120Y010474D02*
X024120Y010243D01*
X024197Y010167D01*
X024427Y010167D01*
X024427Y010013D02*
X024350Y009936D01*
X024350Y009706D01*
X024120Y009706D02*
X024120Y009936D01*
X024197Y010013D01*
X024273Y010013D01*
X024350Y009936D01*
X024427Y010013D02*
X024504Y010013D01*
X024580Y009936D01*
X024580Y009706D01*
X024120Y009706D01*
X024120Y009092D02*
X024120Y008862D01*
X024197Y008785D01*
X024350Y008785D01*
X024427Y008862D01*
X024427Y009092D01*
X024580Y009092D02*
X024120Y009092D01*
X024273Y008632D02*
X024273Y008325D01*
X024197Y008325D02*
X024350Y008325D01*
X024427Y008402D01*
X024427Y008555D01*
X024350Y008632D01*
X024273Y008632D01*
X024120Y008555D02*
X024120Y008402D01*
X024197Y008325D01*
X024120Y008172D02*
X024197Y008095D01*
X024504Y008095D01*
X024427Y008018D02*
X024427Y008172D01*
X024350Y007865D02*
X024120Y007865D01*
X024120Y007635D01*
X024197Y007558D01*
X024273Y007635D01*
X024273Y007865D01*
X024350Y007865D02*
X024427Y007788D01*
X024427Y007635D01*
X024350Y007404D02*
X024273Y007404D01*
X024273Y007097D01*
X024197Y007097D02*
X024350Y007097D01*
X024427Y007174D01*
X024427Y007328D01*
X024350Y007404D01*
X024120Y007328D02*
X024120Y007174D01*
X024197Y007097D01*
X024427Y006944D02*
X024427Y006867D01*
X024273Y006714D01*
X024120Y006714D02*
X024427Y006714D01*
X024504Y006560D02*
X024580Y006484D01*
X024580Y006330D01*
X024504Y006253D01*
X024197Y006253D01*
X024120Y006330D01*
X024120Y006484D01*
X024197Y006560D01*
X025120Y006560D02*
X025120Y006253D01*
X025197Y006253D01*
X025504Y006560D01*
X025580Y006560D01*
X025580Y006253D01*
X025427Y006714D02*
X025427Y006790D01*
X025120Y006790D01*
X025120Y006714D02*
X025120Y006867D01*
X025120Y007097D02*
X025504Y007097D01*
X025580Y007174D01*
X025350Y007174D02*
X025350Y007021D01*
X025580Y006790D02*
X025657Y006790D01*
X025350Y007788D02*
X025427Y007865D01*
X025427Y008095D01*
X025350Y008248D02*
X025197Y008248D01*
X025120Y008325D01*
X025120Y008479D01*
X025197Y008555D01*
X025350Y008555D01*
X025427Y008479D01*
X025427Y008325D01*
X025350Y008248D01*
X025197Y008095D02*
X025273Y008018D01*
X025273Y007865D01*
X025350Y007788D01*
X025120Y007788D02*
X025120Y008018D01*
X025197Y008095D01*
X025197Y008709D02*
X025120Y008785D01*
X025120Y009016D01*
X025120Y009169D02*
X025580Y009169D01*
X025427Y009016D02*
X025427Y008785D01*
X025350Y008709D01*
X025197Y008709D01*
X025273Y009169D02*
X025427Y009399D01*
X025350Y009553D02*
X025427Y009630D01*
X025427Y009783D01*
X025350Y009860D01*
X025273Y009860D01*
X025273Y009553D01*
X025197Y009553D02*
X025350Y009553D01*
X025197Y009553D02*
X025120Y009630D01*
X025120Y009783D01*
X025120Y009399D02*
X025273Y009169D01*
X025427Y010013D02*
X025427Y010167D01*
X025504Y010090D02*
X025197Y010090D01*
X025120Y010167D01*
X025197Y010781D02*
X025273Y010857D01*
X025273Y011087D01*
X025350Y011087D02*
X025120Y011087D01*
X025120Y010857D01*
X025197Y010781D01*
X025427Y010857D02*
X025427Y011011D01*
X025350Y011087D01*
X025350Y011241D02*
X025197Y011241D01*
X025120Y011318D01*
X025120Y011548D01*
X025580Y011548D01*
X025427Y011548D02*
X025427Y011318D01*
X025350Y011241D01*
X025197Y011701D02*
X025273Y011778D01*
X025273Y012008D01*
X025350Y012008D02*
X025120Y012008D01*
X025120Y011778D01*
X025197Y011701D01*
X025427Y011778D02*
X025427Y011932D01*
X025350Y012008D01*
X025427Y012162D02*
X025427Y012392D01*
X025350Y012469D01*
X025197Y012469D01*
X025120Y012392D01*
X025120Y012162D01*
X024967Y012162D02*
X025427Y012162D01*
X025427Y012622D02*
X025427Y012776D01*
X025504Y012699D02*
X025197Y012699D01*
X025120Y012776D01*
X025197Y012929D02*
X025350Y012929D01*
X025427Y013006D01*
X025427Y013159D01*
X025350Y013236D01*
X025273Y013236D01*
X025273Y012929D01*
X025197Y012929D02*
X025120Y013006D01*
X025120Y013159D01*
X025120Y013389D02*
X025427Y013389D01*
X025273Y013389D02*
X025427Y013543D01*
X025427Y013620D01*
X025350Y014233D02*
X025350Y014387D01*
X025350Y014540D02*
X025197Y014540D01*
X025120Y014617D01*
X025120Y014771D01*
X025197Y014847D01*
X025350Y014847D01*
X025427Y014771D01*
X025427Y014617D01*
X025350Y014540D01*
X025504Y014310D02*
X025120Y014310D01*
X025504Y014310D02*
X025580Y014387D01*
X025427Y015001D02*
X025120Y015001D01*
X025273Y015001D02*
X025427Y015154D01*
X025427Y015231D01*
X025427Y015845D02*
X025120Y015845D01*
X025350Y015845D02*
X025350Y016152D01*
X025427Y016152D02*
X025120Y016152D01*
X025120Y016459D02*
X025427Y016612D01*
X025427Y016766D02*
X025120Y016766D01*
X025273Y016766D02*
X025427Y016919D01*
X025427Y016996D01*
X025580Y017610D02*
X025120Y017610D01*
X025120Y017840D01*
X025197Y017917D01*
X025504Y017917D01*
X025580Y017840D01*
X025580Y017610D01*
X025427Y018070D02*
X025120Y018070D01*
X025273Y018070D02*
X025427Y018224D01*
X025427Y018300D01*
X025427Y018530D02*
X025427Y018684D01*
X025350Y018761D01*
X025120Y018761D01*
X025120Y018530D01*
X025197Y018454D01*
X025273Y018530D01*
X025273Y018761D01*
X025197Y018914D02*
X025120Y018991D01*
X025120Y019221D01*
X025043Y019221D02*
X025427Y019221D01*
X025427Y018991D01*
X025350Y018914D01*
X025197Y018914D01*
X024967Y019068D02*
X024967Y019144D01*
X025043Y019221D01*
X025197Y019375D02*
X025120Y019451D01*
X025120Y019605D01*
X025197Y019681D01*
X025350Y019681D01*
X025427Y019605D01*
X025427Y019451D01*
X025350Y019375D01*
X025197Y019375D01*
X025120Y019835D02*
X025427Y019835D01*
X025427Y020065D01*
X025350Y020142D01*
X025120Y020142D01*
X025120Y016459D02*
X025427Y016305D01*
X025427Y016152D02*
X025580Y015998D01*
X025427Y015845D01*
X024580Y015615D02*
X024120Y015615D01*
X024120Y015461D02*
X024120Y015231D01*
X024197Y015154D01*
X024350Y015154D01*
X024427Y015231D01*
X024427Y015461D01*
X024350Y015615D02*
X024427Y015691D01*
X024427Y015845D01*
X024350Y015922D01*
X024120Y015922D01*
X024273Y015001D02*
X024273Y014694D01*
X024197Y014694D02*
X024350Y014694D01*
X024427Y014771D01*
X024427Y014924D01*
X024350Y015001D01*
X024273Y015001D01*
X024120Y014924D02*
X024120Y014771D01*
X024197Y014694D01*
X024120Y014540D02*
X024197Y014464D01*
X024504Y014464D01*
X024427Y014387D02*
X024427Y014540D01*
X024427Y014233D02*
X024427Y014003D01*
X024350Y013927D01*
X024273Y014003D01*
X024273Y014157D01*
X024197Y014233D01*
X024120Y014157D01*
X024120Y013927D01*
X024120Y013773D02*
X024350Y013773D01*
X024427Y013696D01*
X024350Y013620D01*
X024120Y013620D01*
X024120Y013466D02*
X024427Y013466D01*
X024427Y013543D01*
X024350Y013620D01*
X024350Y013313D02*
X024273Y013313D01*
X024273Y013006D01*
X024197Y013006D02*
X024350Y013006D01*
X024427Y013082D01*
X024427Y013236D01*
X024350Y013313D01*
X024120Y013236D02*
X024120Y013082D01*
X024197Y013006D01*
X024120Y012852D02*
X024197Y012776D01*
X024504Y012776D01*
X024427Y012699D02*
X024427Y012852D01*
X024427Y012545D02*
X024427Y012315D01*
X024350Y012238D01*
X024273Y012315D01*
X024273Y012469D01*
X024197Y012545D01*
X024120Y012469D01*
X024120Y012238D01*
X024120Y012085D02*
X024120Y011855D01*
X024197Y011778D01*
X024427Y011778D01*
X024504Y011625D02*
X024580Y011548D01*
X024580Y011394D01*
X024504Y011318D01*
X024427Y011318D01*
X024350Y011394D01*
X024350Y011548D01*
X024273Y011625D01*
X024197Y011625D01*
X024120Y011548D01*
X024120Y011394D01*
X024197Y011318D01*
X023967Y011932D02*
X023967Y012008D01*
X024043Y012085D01*
X024427Y012085D01*
X021754Y007060D02*
X021830Y006984D01*
X021830Y006830D01*
X021754Y006753D01*
X021754Y007060D02*
X021677Y007060D01*
X021370Y006753D01*
X021370Y007060D01*
X020830Y006907D02*
X020370Y006907D01*
X020370Y007060D02*
X020370Y006753D01*
X020677Y006753D02*
X020830Y006907D01*
D11*
X025100Y000233D02*
X002100Y000233D01*
X002013Y000235D01*
X001926Y000241D01*
X001839Y000250D01*
X001753Y000263D01*
X001667Y000280D01*
X001582Y000301D01*
X001499Y000326D01*
X001416Y000354D01*
X001335Y000385D01*
X001255Y000420D01*
X001177Y000459D01*
X001100Y000501D01*
X001025Y000546D01*
X000953Y000595D01*
X000882Y000646D01*
X000814Y000701D01*
X000749Y000758D01*
X000686Y000819D01*
X000625Y000882D01*
X000568Y000947D01*
X000513Y001015D01*
X000462Y001086D01*
X000413Y001158D01*
X000368Y001233D01*
X000326Y001310D01*
X000287Y001388D01*
X000252Y001468D01*
X000221Y001549D01*
X000193Y001632D01*
X000168Y001715D01*
X000147Y001800D01*
X000130Y001886D01*
X000117Y001972D01*
X000108Y002059D01*
X000102Y002146D01*
X000100Y002233D01*
X000100Y020233D01*
X000102Y020320D01*
X000108Y020407D01*
X000117Y020494D01*
X000130Y020580D01*
X000147Y020666D01*
X000168Y020751D01*
X000193Y020834D01*
X000221Y020917D01*
X000252Y020998D01*
X000287Y021078D01*
X000326Y021156D01*
X000368Y021233D01*
X000413Y021308D01*
X000462Y021380D01*
X000513Y021451D01*
X000568Y021519D01*
X000625Y021584D01*
X000686Y021647D01*
X000749Y021708D01*
X000814Y021765D01*
X000882Y021820D01*
X000953Y021871D01*
X001025Y021920D01*
X001100Y021965D01*
X001177Y022007D01*
X001255Y022046D01*
X001335Y022081D01*
X001416Y022112D01*
X001499Y022140D01*
X001582Y022165D01*
X001667Y022186D01*
X001753Y022203D01*
X001839Y022216D01*
X001926Y022225D01*
X002013Y022231D01*
X002100Y022233D01*
X025100Y022233D01*
X025187Y022231D01*
X025274Y022225D01*
X025361Y022216D01*
X025447Y022203D01*
X025533Y022186D01*
X025618Y022165D01*
X025701Y022140D01*
X025784Y022112D01*
X025865Y022081D01*
X025945Y022046D01*
X026023Y022007D01*
X026100Y021965D01*
X026175Y021920D01*
X026247Y021871D01*
X026318Y021820D01*
X026386Y021765D01*
X026451Y021708D01*
X026514Y021647D01*
X026575Y021584D01*
X026632Y021519D01*
X026687Y021451D01*
X026738Y021380D01*
X026787Y021308D01*
X026832Y021233D01*
X026874Y021156D01*
X026913Y021078D01*
X026948Y020998D01*
X026979Y020917D01*
X027007Y020834D01*
X027032Y020751D01*
X027053Y020666D01*
X027070Y020580D01*
X027083Y020494D01*
X027092Y020407D01*
X027098Y020320D01*
X027100Y020233D01*
X027100Y002233D01*
X027098Y002146D01*
X027092Y002059D01*
X027083Y001972D01*
X027070Y001886D01*
X027053Y001800D01*
X027032Y001715D01*
X027007Y001632D01*
X026979Y001549D01*
X026948Y001468D01*
X026913Y001388D01*
X026874Y001310D01*
X026832Y001233D01*
X026787Y001158D01*
X026738Y001086D01*
X026687Y001015D01*
X026632Y000947D01*
X026575Y000882D01*
X026514Y000819D01*
X026451Y000758D01*
X026386Y000701D01*
X026318Y000646D01*
X026247Y000595D01*
X026175Y000546D01*
X026100Y000501D01*
X026023Y000459D01*
X025945Y000420D01*
X025865Y000385D01*
X025784Y000354D01*
X025701Y000326D01*
X025618Y000301D01*
X025533Y000280D01*
X025447Y000263D01*
X025361Y000250D01*
X025274Y000241D01*
X025187Y000235D01*
X025100Y000233D01*
D12*
X018066Y012246D02*
X018066Y012773D01*
X017934Y012773D01*
X017407Y012246D01*
X017275Y012246D01*
X017275Y012773D01*
X017275Y013037D02*
X017275Y013301D01*
X017275Y013169D02*
X018066Y013169D01*
X018066Y013037D02*
X018066Y013301D01*
X018066Y013565D02*
X018066Y014092D01*
X017670Y013829D02*
X017670Y013565D01*
X017275Y013565D02*
X018066Y013565D01*
X018066Y015149D02*
X017275Y015149D01*
X017275Y015544D01*
X017407Y015676D01*
X017934Y015676D01*
X018066Y015544D01*
X018066Y015149D01*
X017802Y015941D02*
X017275Y015941D01*
X017539Y015941D02*
X017802Y016204D01*
X017802Y016336D01*
X017802Y016733D02*
X017802Y016996D01*
X017670Y017128D01*
X017275Y017128D01*
X017275Y016733D01*
X017407Y016601D01*
X017539Y016733D01*
X017539Y017128D01*
X017670Y017393D02*
X017407Y017393D01*
X017275Y017524D01*
X017275Y017920D01*
X017143Y017920D02*
X017802Y017920D01*
X017802Y017524D01*
X017670Y017393D01*
X017011Y017656D02*
X017011Y017788D01*
X017143Y017920D01*
X017407Y018185D02*
X017275Y018316D01*
X017275Y018580D01*
X017407Y018712D01*
X017670Y018712D01*
X017802Y018580D01*
X017802Y018316D01*
X017670Y018185D01*
X017407Y018185D01*
X017275Y018976D02*
X017802Y018976D01*
X017802Y019372D01*
X017670Y019504D01*
X017275Y019504D01*
D13*
X015100Y019483D02*
X015100Y019983D01*
X014850Y020233D01*
X015100Y020483D01*
X015100Y020983D01*
X014850Y021233D01*
X013350Y021233D01*
X013100Y020983D01*
X013100Y020483D01*
X013350Y020233D01*
X014850Y020233D01*
X015100Y019483D02*
X014850Y019233D01*
X013350Y019233D01*
X013100Y018983D01*
X013100Y018483D01*
X013350Y018233D01*
X014850Y018233D01*
X015100Y018483D01*
X015100Y018983D01*
X014850Y019233D01*
X014850Y018233D02*
X015100Y017983D01*
X015100Y017483D01*
X014850Y017233D01*
X013350Y017233D01*
X013100Y017483D01*
X013100Y017983D01*
X013350Y018233D01*
X013350Y017233D02*
X013100Y016983D01*
X013100Y016483D01*
X013350Y016233D01*
X014850Y016233D01*
X015100Y016483D01*
X015100Y016983D01*
X014850Y017233D01*
X014850Y016233D02*
X015100Y015983D01*
X015100Y015483D01*
X014850Y015233D01*
X013350Y015233D01*
X013100Y015483D01*
X013100Y015983D01*
X013350Y016233D01*
X013350Y015233D02*
X013100Y014983D01*
X013100Y014483D01*
X013350Y014233D01*
X014850Y014233D01*
X015100Y014483D01*
X015100Y014983D01*
X014850Y015233D01*
X014850Y014233D02*
X015100Y013983D01*
X015100Y013483D01*
X014850Y013233D01*
X013350Y013233D01*
X013100Y013483D01*
X013100Y013983D01*
X013350Y014233D01*
X013350Y013233D02*
X013100Y012983D01*
X013100Y012483D01*
X013350Y012233D01*
X014850Y012233D01*
X015100Y012483D01*
X015100Y012983D01*
X014850Y013233D01*
X014850Y012233D02*
X015100Y011983D01*
X015100Y011483D01*
X014850Y011233D01*
X013350Y011233D01*
X013100Y011483D01*
X013100Y011983D01*
X013350Y012233D01*
X011600Y011983D02*
X011600Y011483D01*
X011350Y011233D01*
X009850Y011233D01*
X009600Y010983D01*
X009600Y010483D01*
X009850Y010233D01*
X011350Y010233D01*
X011600Y010483D01*
X011600Y010983D01*
X011350Y011233D01*
X011600Y011983D02*
X011350Y012233D01*
X009850Y012233D01*
X009600Y011983D01*
X009600Y011483D01*
X009850Y011233D01*
X009850Y012233D02*
X009600Y012483D01*
X009600Y012983D01*
X009850Y013233D01*
X011350Y013233D01*
X011600Y013483D01*
X011600Y013983D01*
X011350Y014233D01*
X009850Y014233D01*
X009600Y013983D01*
X009600Y013483D01*
X009850Y013233D01*
X009850Y014233D02*
X009600Y014483D01*
X009600Y014983D01*
X009850Y015233D01*
X011350Y015233D01*
X011600Y015483D01*
X011600Y015983D01*
X011350Y016233D01*
X009850Y016233D01*
X009600Y015983D01*
X009600Y015483D01*
X009850Y015233D01*
X009850Y016233D02*
X009600Y016483D01*
X009600Y016983D01*
X009850Y017233D01*
X011350Y017233D01*
X011600Y017483D01*
X011600Y017983D01*
X011350Y018233D01*
X009850Y018233D01*
X009600Y017983D01*
X009600Y017483D01*
X009850Y017233D01*
X009850Y018233D02*
X009600Y018483D01*
X009600Y018983D01*
X009850Y019233D01*
X011350Y019233D01*
X011600Y019483D01*
X011600Y019983D01*
X011350Y020233D01*
X011600Y020483D01*
X011600Y020983D01*
X011350Y021233D01*
X009850Y021233D01*
X009600Y020983D01*
X009600Y020483D01*
X009850Y020233D01*
X011350Y020233D01*
X011350Y019233D02*
X011600Y018983D01*
X011600Y018483D01*
X011350Y018233D01*
X011350Y017233D02*
X011600Y016983D01*
X011600Y016483D01*
X011350Y016233D01*
X011350Y015233D02*
X011600Y014983D01*
X011600Y014483D01*
X011350Y014233D01*
X011350Y013233D02*
X011600Y012983D01*
X011600Y012483D01*
X011350Y012233D01*
X011350Y010233D02*
X011600Y009983D01*
X011600Y009483D01*
X011350Y009233D01*
X009850Y009233D01*
X009600Y008983D01*
X009600Y008483D01*
X009850Y008233D01*
X011350Y008233D01*
X011600Y008483D01*
X011600Y008983D01*
X011350Y009233D01*
X011350Y008233D02*
X011600Y007983D01*
X011600Y007483D01*
X011350Y007233D01*
X009850Y007233D01*
X009600Y007483D01*
X009600Y007983D01*
X009850Y008233D01*
X009850Y007233D02*
X009600Y006983D01*
X009600Y006483D01*
X009850Y006233D01*
X011350Y006233D01*
X011600Y006483D01*
X011600Y006983D01*
X011350Y007233D01*
X011350Y006233D02*
X011600Y005983D01*
X011600Y005483D01*
X011350Y005233D01*
X009850Y005233D01*
X009600Y005483D01*
X009600Y005983D01*
X009850Y006233D01*
X009850Y005233D02*
X009600Y004983D01*
X009600Y004483D01*
X009850Y004233D01*
X011350Y004233D01*
X011600Y004483D01*
X011600Y004983D01*
X011350Y005233D01*
X011350Y004233D02*
X011600Y003983D01*
X011600Y003483D01*
X011350Y003233D01*
X009850Y003233D01*
X009600Y003483D01*
X009600Y003983D01*
X009850Y004233D01*
X009850Y003233D02*
X009600Y002983D01*
X009600Y002483D01*
X009850Y002233D01*
X009600Y001983D01*
X009600Y001483D01*
X009850Y001233D01*
X011350Y001233D01*
X011600Y001483D01*
X011600Y001983D01*
X011350Y002233D01*
X009850Y002233D01*
X011350Y002233D02*
X011600Y002483D01*
X011600Y002983D01*
X011350Y003233D01*
X013100Y002233D02*
X014100Y002233D01*
X014100Y001233D01*
X015100Y001233D01*
X015100Y006233D01*
X013100Y006233D01*
X013100Y002233D01*
X013100Y001233D01*
X014100Y001233D01*
X016600Y001233D02*
X016600Y002233D01*
X017600Y002233D01*
X017600Y001233D01*
X016600Y001233D01*
X017600Y001233D02*
X018600Y001233D01*
X018600Y004233D01*
X016600Y004233D01*
X016600Y002233D01*
X020100Y002233D02*
X020100Y001233D01*
X021100Y001233D01*
X021100Y002233D01*
X020100Y002233D01*
X020100Y006233D01*
X022100Y006233D01*
X022100Y001233D01*
X021100Y001233D01*
X023600Y001233D02*
X023600Y002233D01*
X024600Y002233D01*
X024600Y001233D01*
X023600Y001233D01*
X024600Y001233D02*
X025600Y001233D01*
X025600Y004233D01*
X023600Y004233D01*
X023600Y002233D01*
X022100Y007233D02*
X021100Y007233D01*
X021100Y008233D01*
X020100Y008233D01*
X020100Y007233D01*
X021100Y007233D01*
X022100Y007233D02*
X022100Y010233D01*
X020100Y010233D01*
X020100Y008233D01*
X020350Y011233D02*
X021850Y011233D01*
X022100Y011483D01*
X022100Y011983D01*
X021850Y012233D01*
X020350Y012233D01*
X020100Y012483D01*
X020100Y012983D01*
X020350Y013233D01*
X021850Y013233D01*
X022100Y013483D01*
X022100Y013983D01*
X021850Y014233D01*
X020350Y014233D01*
X020100Y014483D01*
X020100Y014983D01*
X020350Y015233D01*
X021850Y015233D01*
X022100Y015483D01*
X022100Y015983D01*
X021850Y016233D01*
X020350Y016233D01*
X020100Y016483D01*
X020100Y016983D01*
X020350Y017233D01*
X021850Y017233D01*
X022100Y017483D01*
X022100Y017983D01*
X021850Y018233D01*
X020350Y018233D01*
X020100Y017983D01*
X020100Y017483D01*
X020350Y017233D01*
X020350Y018233D02*
X020100Y018483D01*
X020100Y018983D01*
X020350Y019233D01*
X021850Y019233D01*
X022100Y019483D01*
X022100Y019983D01*
X021850Y020233D01*
X022100Y020483D01*
X022100Y020983D01*
X021850Y021233D01*
X020350Y021233D01*
X020100Y020983D01*
X020100Y020483D01*
X020350Y020233D01*
X021850Y020233D01*
X021850Y019233D02*
X022100Y018983D01*
X022100Y018483D01*
X021850Y018233D01*
X021850Y017233D02*
X022100Y016983D01*
X022100Y016483D01*
X021850Y016233D01*
X021850Y015233D02*
X022100Y014983D01*
X022100Y014483D01*
X021850Y014233D01*
X021850Y013233D02*
X022100Y012983D01*
X022100Y012483D01*
X021850Y012233D01*
X020350Y012233D02*
X020100Y011983D01*
X020100Y011483D01*
X020350Y011233D01*
X020350Y013233D02*
X020100Y013483D01*
X020100Y013983D01*
X020350Y014233D01*
X020350Y015233D02*
X020100Y015483D01*
X020100Y015983D01*
X020350Y016233D01*
X020350Y019233D02*
X020100Y019483D01*
X020100Y019983D01*
X020350Y020233D01*
X013350Y020233D02*
X013100Y019983D01*
X013100Y019483D01*
X013350Y019233D01*
X009850Y019233D02*
X009600Y019483D01*
X009600Y019983D01*
X009850Y020233D01*
X007250Y021233D02*
X001950Y021233D01*
X001950Y001233D01*
X004150Y001233D01*
X004152Y001272D01*
X004158Y001311D01*
X004167Y001349D01*
X004180Y001386D01*
X004197Y001422D01*
X004217Y001455D01*
X004241Y001487D01*
X004267Y001516D01*
X004296Y001542D01*
X004328Y001566D01*
X004361Y001586D01*
X004397Y001603D01*
X004434Y001616D01*
X004472Y001625D01*
X004511Y001631D01*
X004550Y001633D01*
X004589Y001631D01*
X004628Y001625D01*
X004666Y001616D01*
X004703Y001603D01*
X004739Y001586D01*
X004772Y001566D01*
X004804Y001542D01*
X004833Y001516D01*
X004859Y001487D01*
X004883Y001455D01*
X004903Y001422D01*
X004920Y001386D01*
X004933Y001349D01*
X004942Y001311D01*
X004948Y001272D01*
X004950Y001233D01*
X007250Y001233D01*
X007250Y021233D01*
X009850Y010233D02*
X009600Y009983D01*
X009600Y009483D01*
X009850Y009233D01*
X013100Y008233D02*
X013100Y007233D01*
X014100Y007233D01*
X014100Y008233D01*
X013100Y008233D01*
X013100Y010233D01*
X015100Y010233D01*
X015100Y007233D01*
X014100Y007233D01*
X003689Y001004D02*
X003475Y001004D01*
X003582Y001004D02*
X003582Y000363D01*
X003689Y000363D02*
X003475Y000363D01*
X003259Y000470D02*
X003152Y000363D01*
X002939Y000363D01*
X002832Y000470D01*
X002615Y000363D02*
X002188Y000363D01*
X002401Y000363D02*
X002401Y001004D01*
X002615Y000790D01*
X002832Y000897D02*
X002939Y001004D01*
X003152Y001004D01*
X003259Y000897D01*
X003259Y000470D01*
D14*
X011875Y001333D02*
X011875Y001408D01*
X011950Y001484D01*
X012325Y001484D01*
X012325Y001559D02*
X012325Y001408D01*
X012325Y001719D02*
X012325Y001944D01*
X012250Y002019D01*
X012100Y002019D01*
X012025Y001944D01*
X012025Y001719D01*
X011875Y001719D02*
X012325Y001719D01*
X012175Y002179D02*
X012325Y002329D01*
X011875Y002329D01*
X011875Y002179D02*
X011875Y002479D01*
X011875Y001333D02*
X011950Y001258D01*
X015250Y001333D02*
X015250Y001408D01*
X015325Y001484D01*
X015700Y001484D01*
X015700Y001559D02*
X015700Y001408D01*
X015700Y001719D02*
X015475Y001719D01*
X015550Y001869D01*
X015550Y001944D01*
X015475Y002019D01*
X015325Y002019D01*
X015250Y001944D01*
X015250Y001794D01*
X015325Y001719D01*
X015700Y001719D02*
X015700Y002019D01*
X015250Y001333D02*
X015325Y001258D01*
X018750Y001333D02*
X018750Y001408D01*
X018825Y001484D01*
X019200Y001484D01*
X019200Y001559D02*
X019200Y001408D01*
X018975Y001719D02*
X018975Y001944D01*
X018900Y002019D01*
X018825Y002019D01*
X018750Y001944D01*
X018750Y001794D01*
X018825Y001719D01*
X018975Y001719D01*
X019125Y001869D01*
X019200Y002019D01*
X018750Y001333D02*
X018825Y001258D01*
X022250Y001333D02*
X022250Y001408D01*
X022325Y001484D01*
X022700Y001484D01*
X022700Y001559D02*
X022700Y001408D01*
X022625Y001719D02*
X022700Y001794D01*
X022700Y001944D01*
X022625Y002019D01*
X022550Y002019D01*
X022250Y001719D01*
X022250Y002019D01*
X022250Y001333D02*
X022325Y001258D01*
X025750Y001333D02*
X025750Y001408D01*
X025825Y001484D01*
X026200Y001484D01*
X026200Y001559D02*
X026200Y001408D01*
X026125Y001719D02*
X026200Y001794D01*
X026200Y001944D01*
X026125Y002019D01*
X026050Y002019D01*
X025975Y001944D01*
X025900Y002019D01*
X025825Y002019D01*
X025750Y001944D01*
X025750Y001794D01*
X025825Y001719D01*
X025975Y001869D02*
X025975Y001944D01*
X025750Y001333D02*
X025825Y001258D01*
X022325Y007258D02*
X022250Y007333D01*
X022250Y007408D01*
X022325Y007484D01*
X022700Y007484D01*
X022700Y007559D02*
X022700Y007408D01*
X022550Y007719D02*
X022700Y007869D01*
X022250Y007869D01*
X022250Y007719D02*
X022250Y008019D01*
X022450Y011258D02*
X022375Y011333D01*
X022375Y011408D01*
X022450Y011484D01*
X022825Y011484D01*
X022825Y011559D02*
X022825Y011408D01*
X022825Y011719D02*
X022375Y011719D01*
X022525Y011719D02*
X022525Y011944D01*
X022600Y012019D01*
X022750Y012019D01*
X022825Y011944D01*
X022825Y011719D01*
X022750Y012179D02*
X022825Y012254D01*
X022825Y012404D01*
X022750Y012479D01*
X022675Y012479D01*
X022600Y012404D01*
X022525Y012479D01*
X022450Y012479D01*
X022375Y012404D01*
X022375Y012254D01*
X022450Y012179D01*
X022600Y012329D02*
X022600Y012404D01*
X015825Y012404D02*
X015600Y012179D01*
X015600Y012479D01*
X015375Y012404D02*
X015825Y012404D01*
X015750Y012019D02*
X015600Y012019D01*
X015525Y011944D01*
X015525Y011719D01*
X015375Y011719D02*
X015825Y011719D01*
X015825Y011944D01*
X015750Y012019D01*
X015825Y011559D02*
X015825Y011408D01*
X015825Y011484D02*
X015450Y011484D01*
X015375Y011408D01*
X015375Y011333D01*
X015450Y011258D01*
X015475Y008019D02*
X015475Y007719D01*
X015700Y007944D01*
X015250Y007944D01*
X015325Y007484D02*
X015700Y007484D01*
X015700Y007559D02*
X015700Y007408D01*
X015325Y007484D02*
X015250Y007408D01*
X015250Y007333D01*
X015325Y007258D01*
D15*
X012850Y007733D02*
X012600Y007983D01*
X012600Y007483D01*
X012850Y007733D01*
X012843Y007741D02*
X012600Y007741D01*
X012600Y007764D02*
X012819Y007764D01*
X012796Y007788D02*
X012600Y007788D01*
X012600Y007811D02*
X012772Y007811D01*
X012749Y007835D02*
X012600Y007835D01*
X012600Y007858D02*
X012725Y007858D01*
X012702Y007882D02*
X012600Y007882D01*
X012600Y007905D02*
X012678Y007905D01*
X012655Y007929D02*
X012600Y007929D01*
X012600Y007952D02*
X012631Y007952D01*
X012608Y007975D02*
X012600Y007975D01*
X012600Y007717D02*
X012834Y007717D01*
X012811Y007694D02*
X012600Y007694D01*
X012600Y007670D02*
X012787Y007670D01*
X012764Y007647D02*
X012600Y007647D01*
X012600Y007624D02*
X012740Y007624D01*
X012717Y007600D02*
X012600Y007600D01*
X012600Y007577D02*
X012693Y007577D01*
X012670Y007553D02*
X012600Y007553D01*
X012600Y007530D02*
X012646Y007530D01*
X012623Y007506D02*
X012600Y007506D01*
X019600Y007506D02*
X019623Y007506D01*
X019600Y007483D02*
X019600Y007983D01*
X019850Y007733D01*
X019600Y007483D01*
X019600Y007530D02*
X019646Y007530D01*
X019670Y007553D02*
X019600Y007553D01*
X019600Y007577D02*
X019693Y007577D01*
X019717Y007600D02*
X019600Y007600D01*
X019600Y007624D02*
X019740Y007624D01*
X019764Y007647D02*
X019600Y007647D01*
X019600Y007670D02*
X019787Y007670D01*
X019811Y007694D02*
X019600Y007694D01*
X019600Y007717D02*
X019834Y007717D01*
X019843Y007741D02*
X019600Y007741D01*
X019600Y007764D02*
X019819Y007764D01*
X019796Y007788D02*
X019600Y007788D01*
X019600Y007811D02*
X019772Y007811D01*
X019749Y007835D02*
X019600Y007835D01*
X019600Y007858D02*
X019725Y007858D01*
X019702Y007882D02*
X019600Y007882D01*
X019600Y007905D02*
X019678Y007905D01*
X019655Y007929D02*
X019600Y007929D01*
X019600Y007952D02*
X019631Y007952D01*
X019608Y007975D02*
X019600Y007975D01*
D16*
X023660Y018233D02*
X023860Y018233D01*
X023900Y018463D01*
X024090Y018543D02*
X024280Y018413D01*
X024420Y018553D01*
X024290Y018743D01*
X024360Y018923D02*
X024600Y018973D01*
X024600Y019163D01*
X024360Y019213D01*
X024290Y019393D02*
X024420Y019593D01*
X024280Y019733D01*
X024090Y019593D01*
X023900Y019683D02*
X023860Y019903D01*
X023660Y019903D01*
X023620Y019683D01*
X023420Y019603D02*
X023240Y019733D01*
X023100Y019593D01*
X023220Y019413D01*
X023180Y019333D01*
X023520Y019193D01*
X023520Y018953D02*
X023180Y018803D01*
X023220Y018733D01*
X023100Y018553D01*
X023240Y018413D01*
X023420Y018533D01*
X023620Y018453D02*
X023660Y018233D01*
X023604Y018456D02*
X023557Y018471D01*
X023511Y018489D01*
X023467Y018511D01*
X023425Y018536D01*
X024286Y018746D02*
X024309Y018788D01*
X024328Y018831D01*
X024345Y018876D01*
X024357Y018922D01*
X023520Y018953D02*
X023536Y018925D01*
X023555Y018898D01*
X023577Y018875D01*
X023602Y018854D01*
X023630Y018836D01*
X023659Y018821D01*
X023690Y018811D01*
X023721Y018803D01*
X023754Y018800D01*
X023786Y018801D01*
X023819Y018805D01*
X023850Y018814D01*
X023880Y018826D01*
X023909Y018841D01*
X023936Y018860D01*
X023960Y018882D01*
X023981Y018906D01*
X024000Y018933D01*
X024015Y018962D01*
X024026Y018993D01*
X024034Y019024D01*
X024038Y019057D01*
X024038Y019089D01*
X024034Y019122D01*
X024026Y019153D01*
X024015Y019184D01*
X024000Y019213D01*
X023981Y019240D01*
X023960Y019264D01*
X023936Y019286D01*
X023909Y019305D01*
X023880Y019320D01*
X023850Y019332D01*
X023819Y019341D01*
X023786Y019345D01*
X023754Y019346D01*
X023721Y019343D01*
X023690Y019335D01*
X023659Y019325D01*
X023630Y019310D01*
X023602Y019292D01*
X023577Y019271D01*
X023555Y019248D01*
X023536Y019221D01*
X023520Y019193D01*
X023900Y019685D02*
X023940Y019673D01*
X023979Y019658D01*
X024017Y019640D01*
X024053Y019620D01*
X024088Y019598D01*
X024290Y019393D02*
X024313Y019350D01*
X024333Y019306D01*
X024349Y019260D01*
X024361Y019214D01*
X023621Y019683D02*
X023579Y019673D01*
X023538Y019660D01*
X023498Y019644D01*
X023459Y019625D01*
X023422Y019603D01*
X023902Y018461D02*
X023942Y018472D01*
X023981Y018486D01*
X024018Y018502D01*
X024055Y018521D01*
X024090Y018542D01*
M02*
