%
M48
M72
T01C0.0315
T02C0.0320
T03C0.0400
%
T01
X13600Y1733
X14600Y1733
X14600Y2733
X13600Y2733
X13600Y3733
X14600Y3733
X14600Y4733
X13600Y4733
X13600Y5733
X14600Y5733
X17100Y3733
X17100Y2733
X18100Y2733
X18100Y3733
X18100Y1733
X17100Y1733
X20600Y1733
X21600Y1733
X21600Y2733
X20600Y2733
X20600Y3733
X21600Y3733
X21600Y4733
X20600Y4733
X20600Y5733
X21600Y5733
X24100Y3733
X24100Y2733
X25100Y2733
X25100Y3733
X25100Y1733
X24100Y1733
T02
X1600Y1733
X1600Y2733
X1600Y3733
X1600Y4733
X1600Y5733
X1600Y6733
X1600Y7733
X1600Y8733
X1600Y9733
X1600Y10733
X1600Y11733
X1600Y12733
X1600Y13733
X1600Y14733
X1600Y15733
X1600Y16733
X1600Y17733
X1600Y18733
X1600Y19733
X1600Y20733
X7600Y20733
X7600Y19733
X7600Y18733
X7600Y17733
X7600Y16733
X7600Y15733
X7600Y14733
X7600Y13733
X7600Y12733
X7600Y11733
X7600Y10733
X7600Y9733
X7600Y8733
X7600Y7733
X7600Y6733
X7600Y5733
X7600Y4733
X7600Y3733
X7600Y2733
X7600Y1733
T03
X10100Y1733
X11100Y1733
X11100Y2733
X10100Y2733
X10100Y3733
X11100Y3733
X11100Y4733
X10100Y4733
X10100Y5733
X11100Y5733
X11100Y6733
X10100Y6733
X10100Y7733
X11100Y7733
X11100Y8733
X10100Y8733
X10100Y9733
X11100Y9733
X11100Y10733
X10100Y10733
X10100Y11733
X11100Y11733
X11100Y12733
X10100Y12733
X10100Y13733
X11100Y13733
X11100Y14733
X10100Y14733
X10100Y15733
X11100Y15733
X11100Y16733
X10100Y16733
X10100Y17733
X11100Y17733
X11100Y18733
X10100Y18733
X10100Y19733
X11100Y19733
X11100Y20733
X10100Y20733
X13600Y20733
X14600Y20733
X14600Y19733
X13600Y19733
X13600Y18733
X14600Y18733
X14600Y17733
X13600Y17733
X13600Y16733
X14600Y16733
X14600Y15733
X13600Y15733
X13600Y14733
X14600Y14733
X14600Y13733
X13600Y13733
X13600Y12733
X14600Y12733
X14600Y11733
X13600Y11733
X13600Y9733
X14600Y9733
X14600Y8733
X13600Y8733
X13600Y7733
X14600Y7733
X20600Y7733
X21600Y7733
X21600Y8733
X20600Y8733
X20600Y9733
X21600Y9733
X21600Y11733
X20600Y11733
X20600Y12733
X21600Y12733
X21600Y13733
X20600Y13733
X20600Y14733
X21600Y14733
X21600Y15733
X20600Y15733
X20600Y16733
X21600Y16733
X21600Y17733
X20600Y17733
X20600Y18733
X21600Y18733
X21600Y19733
X20600Y19733
X20600Y20733
X21600Y20733
M30
