G75*
%MOIN*%
%OFA0B0*%
%FSLAX24Y24*%
%IPPOS*%
%LPD*%
%AMOC8*
5,1,8,0,0,1.08239X$1,22.5*
%
%ADD10OC8,0.0680*%
%ADD11C,0.0600*%
%ADD12R,0.0680X0.0680*%
%ADD13C,0.0680*%
%ADD14R,0.0595X0.0595*%
%ADD15C,0.0595*%
D10*
X010100Y001733D03*
X011100Y001733D03*
X011100Y002733D03*
X010100Y002733D03*
X010100Y003733D03*
X011100Y003733D03*
X011100Y004733D03*
X010100Y004733D03*
X010100Y005733D03*
X011100Y005733D03*
X011100Y006733D03*
X010100Y006733D03*
X010100Y007733D03*
X011100Y007733D03*
X011100Y008733D03*
X010100Y008733D03*
X010100Y009733D03*
X011100Y009733D03*
X011100Y010733D03*
X010100Y010733D03*
X010100Y011733D03*
X011100Y011733D03*
X011100Y012733D03*
X010100Y012733D03*
X010100Y013733D03*
X011100Y013733D03*
X011100Y014733D03*
X010100Y014733D03*
X010100Y015733D03*
X011100Y015733D03*
X011100Y016733D03*
X010100Y016733D03*
X010100Y017733D03*
X011100Y017733D03*
X011100Y018733D03*
X010100Y018733D03*
X010100Y019733D03*
X011100Y019733D03*
X011100Y020733D03*
X010100Y020733D03*
X013600Y020733D03*
X014600Y020733D03*
X014600Y019733D03*
X013600Y019733D03*
X013600Y018733D03*
X014600Y018733D03*
X014600Y017733D03*
X013600Y017733D03*
X013600Y016733D03*
X014600Y016733D03*
X014600Y015733D03*
X013600Y015733D03*
X013600Y014733D03*
X014600Y014733D03*
X014600Y013733D03*
X013600Y013733D03*
X013600Y012733D03*
X014600Y012733D03*
X014600Y011733D03*
X013600Y011733D03*
X020600Y011733D03*
X021600Y011733D03*
X021600Y012733D03*
X020600Y012733D03*
X020600Y013733D03*
X021600Y013733D03*
X021600Y014733D03*
X020600Y014733D03*
X020600Y015733D03*
X021600Y015733D03*
X021600Y016733D03*
X020600Y016733D03*
X020600Y017733D03*
X021600Y017733D03*
X021600Y018733D03*
X020600Y018733D03*
X020600Y019733D03*
X021600Y019733D03*
X021600Y020733D03*
X020600Y020733D03*
D11*
X001860Y001733D02*
X001340Y001733D01*
X001340Y002733D02*
X001860Y002733D01*
X001860Y003733D02*
X001340Y003733D01*
X001340Y004733D02*
X001860Y004733D01*
X001860Y005733D02*
X001340Y005733D01*
X001340Y006733D02*
X001860Y006733D01*
X001860Y007733D02*
X001340Y007733D01*
X001340Y008733D02*
X001860Y008733D01*
X001860Y009733D02*
X001340Y009733D01*
X001340Y010733D02*
X001860Y010733D01*
X001860Y011733D02*
X001340Y011733D01*
X001340Y012733D02*
X001860Y012733D01*
X001860Y013733D02*
X001340Y013733D01*
X001340Y014733D02*
X001860Y014733D01*
X001860Y015733D02*
X001340Y015733D01*
X001340Y016733D02*
X001860Y016733D01*
X001860Y017733D02*
X001340Y017733D01*
X001340Y018733D02*
X001860Y018733D01*
X001860Y019733D02*
X001340Y019733D01*
X001340Y020733D02*
X001860Y020733D01*
X007340Y020733D02*
X007860Y020733D01*
X007860Y019733D02*
X007340Y019733D01*
X007340Y018733D02*
X007860Y018733D01*
X007860Y017733D02*
X007340Y017733D01*
X007340Y016733D02*
X007860Y016733D01*
X007860Y015733D02*
X007340Y015733D01*
X007340Y014733D02*
X007860Y014733D01*
X007860Y013733D02*
X007340Y013733D01*
X007340Y012733D02*
X007860Y012733D01*
X007860Y011733D02*
X007340Y011733D01*
X007340Y010733D02*
X007860Y010733D01*
X007860Y009733D02*
X007340Y009733D01*
X007340Y008733D02*
X007860Y008733D01*
X007860Y007733D02*
X007340Y007733D01*
X007340Y006733D02*
X007860Y006733D01*
X007860Y005733D02*
X007340Y005733D01*
X007340Y004733D02*
X007860Y004733D01*
X007860Y003733D02*
X007340Y003733D01*
X007340Y002733D02*
X007860Y002733D01*
X007860Y001733D02*
X007340Y001733D01*
D12*
X013600Y007733D03*
X020600Y007733D03*
D13*
X021600Y007733D03*
X021600Y008733D03*
X020600Y008733D03*
X020600Y009733D03*
X021600Y009733D03*
X014600Y009733D03*
X013600Y009733D03*
X013600Y008733D03*
X014600Y008733D03*
X014600Y007733D03*
D14*
X013600Y001733D03*
X017100Y001733D03*
X020600Y001733D03*
X024100Y001733D03*
D15*
X025100Y001733D03*
X025100Y002733D03*
X024100Y002733D03*
X024100Y003733D03*
X025100Y003733D03*
X021600Y003733D03*
X021600Y002733D03*
X020600Y002733D03*
X020600Y003733D03*
X020600Y004733D03*
X021600Y004733D03*
X021600Y005733D03*
X020600Y005733D03*
X018100Y003733D03*
X018100Y002733D03*
X017100Y002733D03*
X017100Y003733D03*
X018100Y001733D03*
X014600Y001733D03*
X014600Y002733D03*
X013600Y002733D03*
X013600Y003733D03*
X014600Y003733D03*
X014600Y004733D03*
X013600Y004733D03*
X013600Y005733D03*
X014600Y005733D03*
X021600Y001733D03*
M02*
